<svg id="Layer_1" data-name="Layer 1" xmlns="http://www.w3.org/2000/svg" width="64.48" height="24.64" viewBox="0 0 64.48 24.64"><title>JB_Assets_04</title><path d="M0,0H3.43L16.19,19.65h.07V0h3V24.23H15.78L3.12,4.79H3.05V24.23H0Z"/><path d="M38.06,18.67c-.78,3.86-3.56,6-7.5,6-5.6,0-8.25-3.87-8.42-9.23,0-5.26,3.46-9.13,8.25-9.13,6.21,0,8.11,5.8,7.94,10H25.2c-.11,3.06,1.63,5.77,5.46,5.77a4.23,4.23,0,0,0,4.55-3.42Zm-2.78-4.89a5.06,5.06,0,0,0-5.06-5,5,5,0,0,0-5,5Z"/><path d="M44.43,15,38.32,6.69H42l4.21,6.14,4.38-6.14h3.46l-6,8.07,6.78,9.47H51.12L46.23,17l-4.89,7.26H37.85Z"/><path d="M61,6.69h3.49V9.23H61V20.12c0,1.33.37,1.57,2.17,1.57h1.32v2.54H62.27c-3,0-4.17-.61-4.17-3.83V9.23h-3V6.69h3V1.43H61Z"/></svg>