<svg id="Layer_1" data-name="Layer 1" xmlns="http://www.w3.org/2000/svg" width="61.31" height="24.64" viewBox="0 0 61.31 24.64"><title>JB_Assets_04</title><path d="M0,0H10.62c4.82,0,7.43,2.68,7.43,7.16s-2.61,7.2-7.43,7.16H3.22v9.91H0ZM3.22,11.61H9.54c3.63,0,5.29-1.56,5.29-4.45S13.17,2.72,9.54,2.72H3.22Z"/><path d="M20,6.69h2.72v3.7h.07c1.39-2.82,3.32-4.21,6.45-4.11V9.33c-4.65,0-6.35,2.65-6.35,7.1v7.8H20Z"/><path d="M45.24,18.67c-.78,3.86-3.57,6-7.5,6-5.6,0-8.25-3.87-8.42-9.23,0-5.26,3.46-9.13,8.25-9.13,6.21,0,8.11,5.8,7.94,10H32.37c-.1,3.06,1.63,5.77,5.47,5.77a4.23,4.23,0,0,0,4.55-3.42Zm-2.79-4.89a5,5,0,0,0-10.08,0Z"/><path d="M54.9,24.23H51.81L45.3,6.69h3.22l4.92,14.62h.07L58.29,6.69h3Z"/></svg>